<svg id="Layer_1" viewBox="0 0 30 30" xmlns="http://www.w3.org/2000/svg" data-name="Layer 1"><circle cx="15" cy="19.815" fill="none" r="2.179"/><path d="m22.012 9.88v-1.118a7.012 7.012 0 0 0 -14.024 0v1.118z" fill="none"/><path d="m15 .25a8.521 8.521 0 0 0 -8.512 8.512v1.3a5.357 5.357 0 0 0 -4.037 5.177v9.144a.75.75 0 0 0 1.5 0v-9.14a3.867 3.867 0 0 1 3.863-3.863h14.372a3.867 3.867 0 0 1 3.863 3.863v9.144a3.867 3.867 0 0 1 -3.863 3.863h-14.372a.75.75 0 0 0 0 1.5h14.372a5.369 5.369 0 0 0 5.363-5.363v-9.144a5.357 5.357 0 0 0 -4.037-5.177v-1.3a8.521 8.521 0 0 0 -8.512-8.516zm0 1.5a7.02 7.02 0 0 1 7.012 7.012v1.118h-14.024v-1.118a7.02 7.02 0 0 1 7.012-7.012z"/><path d="m18.679 19.815a3.679 3.679 0 1 0 -3.679 3.679 3.684 3.684 0 0 0 3.679-3.679zm-5.858 0a2.179 2.179 0 1 1 2.179 2.179 2.182 2.182 0 0 1 -2.179-2.179z"/></svg>